<mxfile host="app.diagrams.net" modified="2021-07-08T11:56:51.281Z" agent="5.0 (Macintosh)" etag="XXbIuIvrI-CqkVx-Tqjz" version="14.8.4" type="github">
  <diagram id="rNxtywayCwSzEVcmvXuK" name="Page-1">
    <mxGraphModel dx="1186" dy="651" grid="1" gridSize="10" guides="1" tooltips="1" connect="1" arrows="1" fold="1" page="1" pageScale="1" pageWidth="827" pageHeight="1169" math="0" shadow="0">
      <root>
        <mxCell id="0" />
        <mxCell id="1" parent="0" />
        <mxCell id="vwRsfaoXdg2ToOk2P0fG-2" value="" style="shape=table;startSize=0;container=1;collapsible=0;childLayout=tableLayout;" vertex="1" parent="1">
          <mxGeometry x="410" y="420" width="480" height="170" as="geometry" />
        </mxCell>
        <mxCell id="vwRsfaoXdg2ToOk2P0fG-3" value="" style="shape=partialRectangle;collapsible=0;dropTarget=0;pointerEvents=0;fillColor=none;top=0;left=0;bottom=0;right=0;points=[[0,0.5],[1,0.5]];portConstraint=eastwest;" vertex="1" parent="vwRsfaoXdg2ToOk2P0fG-2">
          <mxGeometry width="480" height="50" as="geometry" />
        </mxCell>
        <mxCell id="vwRsfaoXdg2ToOk2P0fG-4" value="Item name" style="shape=partialRectangle;html=1;whiteSpace=wrap;connectable=0;overflow=hidden;fillColor=none;top=0;left=0;bottom=0;right=0;" vertex="1" parent="vwRsfaoXdg2ToOk2P0fG-3">
          <mxGeometry width="120" height="50" as="geometry" />
        </mxCell>
        <mxCell id="vwRsfaoXdg2ToOk2P0fG-5" value="Reference" style="shape=partialRectangle;html=1;whiteSpace=wrap;connectable=0;overflow=hidden;fillColor=none;top=0;left=0;bottom=0;right=0;" vertex="1" parent="vwRsfaoXdg2ToOk2P0fG-3">
          <mxGeometry x="120" width="94" height="50" as="geometry" />
        </mxCell>
        <mxCell id="vwRsfaoXdg2ToOk2P0fG-6" value="Quantity" style="shape=partialRectangle;html=1;whiteSpace=wrap;connectable=0;overflow=hidden;fillColor=none;top=0;left=0;bottom=0;right=0;" vertex="1" parent="vwRsfaoXdg2ToOk2P0fG-3">
          <mxGeometry x="214" width="76" height="50" as="geometry" />
        </mxCell>
        <mxCell id="vwRsfaoXdg2ToOk2P0fG-7" value="Image" style="shape=partialRectangle;html=1;whiteSpace=wrap;connectable=0;overflow=hidden;fillColor=none;top=0;left=0;bottom=0;right=0;" vertex="1" parent="vwRsfaoXdg2ToOk2P0fG-3">
          <mxGeometry x="290" width="190" height="50" as="geometry" />
        </mxCell>
        <mxCell id="vwRsfaoXdg2ToOk2P0fG-11" style="shape=partialRectangle;collapsible=0;dropTarget=0;pointerEvents=0;fillColor=none;top=0;left=0;bottom=0;right=0;points=[[0,0.5],[1,0.5]];portConstraint=eastwest;" vertex="1" parent="vwRsfaoXdg2ToOk2P0fG-2">
          <mxGeometry y="50" width="480" height="120" as="geometry" />
        </mxCell>
        <mxCell id="vwRsfaoXdg2ToOk2P0fG-12" value="" style="shape=partialRectangle;html=1;whiteSpace=wrap;connectable=0;overflow=hidden;fillColor=none;top=0;left=0;bottom=0;right=0;" vertex="1" parent="vwRsfaoXdg2ToOk2P0fG-11">
          <mxGeometry width="120" height="120" as="geometry" />
        </mxCell>
        <mxCell id="vwRsfaoXdg2ToOk2P0fG-13" style="shape=partialRectangle;html=1;whiteSpace=wrap;connectable=0;overflow=hidden;fillColor=none;top=0;left=0;bottom=0;right=0;" vertex="1" parent="vwRsfaoXdg2ToOk2P0fG-11">
          <mxGeometry x="120" width="94" height="120" as="geometry" />
        </mxCell>
        <mxCell id="vwRsfaoXdg2ToOk2P0fG-14" style="shape=partialRectangle;html=1;whiteSpace=wrap;connectable=0;overflow=hidden;fillColor=none;top=0;left=0;bottom=0;right=0;" vertex="1" parent="vwRsfaoXdg2ToOk2P0fG-11">
          <mxGeometry x="214" width="76" height="120" as="geometry" />
        </mxCell>
        <mxCell id="vwRsfaoXdg2ToOk2P0fG-15" style="shape=partialRectangle;html=1;whiteSpace=wrap;connectable=0;overflow=hidden;fillColor=none;top=0;left=0;bottom=0;right=0;" vertex="1" parent="vwRsfaoXdg2ToOk2P0fG-11">
          <mxGeometry x="290" width="190" height="120" as="geometry" />
        </mxCell>
      </root>
    </mxGraphModel>
  </diagram>
</mxfile>
